<?xml version="1.0" encoding="utf-8"?>
<!-- Generator: Adobe Illustrator 26.3.1, SVG Export Plug-In . SVG Version: 6.00 Build 0)  -->
<svg version="1.1" id="レイヤー_1" xmlns="http://www.w3.org/2000/svg" xmlns:xlink="http://www.w3.org/1999/xlink" x="0px"
	 y="0px" viewBox="0 0 75 20" style="enable-background:new 0 0 75 20;" xml:space="preserve">
<style type="text/css">
	.st0{fill:#0068AE;}
	.st1{fill:#FFFFFF;}
	.st2{fill:#0084C6;}
</style>
<g>
	<path class="st0" d="M1.9,0C0.8,0,0,0.8,0,1.9v16.3c0,1,0.8,1.9,1.9,1.9h16.3c1,0,1.9-0.8,1.9-1.9V1.9c0-1-0.8-1.9-1.9-1.9H1.9z"/>
	<path class="st1" d="M13.7,1.3c-2.5,0-4.9,1.4-5.2,4h0v0.4v7.8c0,1.4-0.7,2.4-2.1,2.4c-1.2,0-2.1-0.8-2.1-2.1
		c0-1.2,0.9-2.1,2.1-2.1c0.7,0,1,0.1,1.3,0.3l0-2.8C7.4,9.2,6.9,9.1,6.2,9.1c-2.4,0-4.9,1.6-4.9,4.8c0,2.7,2.1,4.8,5,4.8
		c2.5,0,4.9-1.4,5.2-4h0v-0.4V6.5c0-1.4,0.7-2.4,2.1-2.4c1.2,0,2.1,0.8,2.1,2.1c0,1.2-0.9,2.1-2.1,2.1c-0.7,0-1-0.1-1.3-0.3l0,2.8
		c0.3,0.1,0.8,0.2,1.5,0.2c2.4,0,4.9-1.6,4.9-4.8C18.7,3.4,16.6,1.3,13.7,1.3z"/>
	<path class="st1" d="M16.7,14.7c-1.1,0-2,0.9-2,2s0.9,2,2,2s2-0.9,2-2S17.8,14.7,16.7,14.7z"/>
	<path class="st2" d="M32.9,1v9.8c0,3.5-2.4,6.2-5.8,6.2c-3.4,0-5.8-2.8-5.8-6.2c0-3.2,2.3-6.2,5.6-6.2c0.6,0,1.3,0.2,1.9,0.3l0,3.3
		c-0.5-0.2-1-0.4-1.7-0.4c-1.6,0-2.7,1.2-2.7,2.9c0,1.7,1.1,2.9,2.6,2.9c1.6,0,2.8-1.2,2.8-2.9V1H32.9z"/>
	<path class="st2" d="M34.7,16.6V4.8h3.1v11.8H34.7z M38.1,2.9c0,1.3-0.8,2-1.8,2c-1,0-1.8-0.7-1.8-2c0-1.3,0.8-2,1.8-2
		C37.3,0.9,38.1,1.7,38.1,2.9z"/>
	<path class="st2" d="M39.4,13.7h4c0.6,0,0.9-0.3,0.9-0.7c0-1.5-4.8-1.8-4.8-4.8c0-2.5,1.8-3.5,3.8-3.5h3.7v2.9h-3.6
		c-0.4,0-0.8,0-0.8,0.5c0,1.1,5,1.7,5,4.8c0,2.3-1.7,3.6-4,3.6h-4.3V13.7z"/>
	<path class="st2" d="M49.2,18.6v-7.9c0-3.5,2.4-6.2,5.8-6.2c3.4,0,5.8,2.8,5.8,6.2c0,3.2-2.3,6.2-5.6,6.2c-0.6,0-1.3-0.2-1.9-0.3
		v-3.3c0.5,0.2,1,0.4,1.7,0.4c1.6,0,2.7-1.2,2.7-2.9c0-1.7-1.1-2.9-2.6-2.9c-1.6,0-2.8,1.2-2.8,2.9v7.9H49.2z"/>
	<path class="st2" d="M63.7,7.7c1.7,0,2.9,1.1,2.9,3.1c0,2-1.1,3.1-2.9,3.1c-1.7,0-2.9-1.1-2.9-3.1C60.8,8.8,62,7.7,63.7,7.7z
		 M63.7,4.6c-3.7,0-6,2.8-6,6.2c0,3.4,2.3,6.2,6,6.2c3.7,0,6-2.8,6-6.2C69.7,7.4,67.3,4.6,63.7,4.6z"/>
	<path class="st2" d="M74.1,14.7c0,1.1-0.8,2-2,2c-1.2,0-2-0.9-2-2c0-1.1,0.8-2,2-2C73.3,12.7,74.1,13.6,74.1,14.7z"/>
	<rect x="21.3" y="18.3" class="st2" width="52.9" height="1"/>
</g>
</svg>
