<?xml version="1.0" encoding="utf-8"?>
<!-- Generator: Adobe Illustrator 26.3.1, SVG Export Plug-In . SVG Version: 6.00 Build 0)  -->
<svg version="1.1" id="レイヤー_1" xmlns="http://www.w3.org/2000/svg" xmlns:xlink="http://www.w3.org/1999/xlink" x="0px"
	 y="0px" viewBox="0 0 104 20" style="enable-background:new 0 0 104 20;" xml:space="preserve">
<style type="text/css">
	.st0{fill:#0075B9;}
	.st1{fill:#009044;}
</style>
<g>
	<path class="st0" d="M21.6,4.5C20,1.6,17.7,0,14.9,0c-2.5,0-4.7,1-6.5,3C8.1,2.9,7.6,2.8,7.2,2.8C2.3,2.8,0,8.7,0,12.8
		c0,2.3,0.2,4.6,0.5,6.4h3.3c-0.3-1.7-0.5-4.1-0.5-6.4c0-2.4,1.2-5.7,3.1-6.5c-0.7,1.6-1,3.3-1,4.8c0,4.6,2,7.4,4.1,7.4
		c1.6,0,4-2.7,4-6.9c0-2.5-0.6-5.1-2-6.8c0.9-0.8,2.1-1.5,3.6-1.5c1.5,0,2.7,0.9,3.7,2.8c0.9,1.8,1.3,3.5,1.3,4.2h3.3
		C23.2,8.9,22.7,6.7,21.6,4.5z M9.4,15.1c-0.3,0-0.8-1.6-0.8-4c0-1.1,0.3-2.3,0.7-3.4c0.8,1.6,0.8,3.8,0.8,3.8
		C10.1,13.5,9.7,15.1,9.4,15.1z"/>
	<path class="st1" d="M24.2,13.7c0,1.4-1.1,2.5-2.5,2.5c-1.4,0-2.5-1.1-2.5-2.5s1.1-2.5,2.5-2.5C23.1,11.3,24.2,12.4,24.2,13.7z"/>
	<g>
		<polygon points="37.8,19.4 40.1,14.3 40.1,19.4 44,19.4 44,10.4 38.4,10.4 35.9,16 33.3,10.4 27.8,10.4 27.8,19.4 31.6,19.4 
			31.6,14.3 34,19.4 		"/>
		<path d="M57.5,19.4h4.3l-4.9-9.1h-7.1l-4.9,9.1h4.3l0.8-1.5h6.6L57.5,19.4z M51.1,15.9l2.2-4.1l2.2,4.1H51.1z"/>
		<polygon points="74.3,10.4 59.5,10.4 59.5,12.8 64.5,12.8 64.5,19.4 69.3,19.4 69.3,12.8 74.3,12.8 		"/>
		<polygon points="79.7,17.4 79.7,16.1 86.9,16.1 86.9,13.9 79.7,13.9 79.7,12.6 87.8,12.6 87.8,10.4 75.4,10.4 75.4,19.5 
			88.3,19.5 88.3,17.4 		"/>
		<path d="M92.9,15.1c0-1.2,1.3-2.4,3.3-2.4c2.1,0,2.7,0.8,3.1,1.3l4,0c-0.8-1.5-3-3.7-7.6-3.7c-4.6,0-7.4,2.4-7.4,4.9
			c0,2.4,2.8,4.9,7.4,4.9c5.3,0,6.8-2.3,7.6-3.9h-4c-0.3,0.5-1,1.3-3.1,1.3C94.2,17.5,92.9,16.3,92.9,15.1"/>
	</g>
</g>
</svg>
