<?xml version="1.0" encoding="utf-8"?>
<!-- Generator: Adobe Illustrator 26.3.1, SVG Export Plug-In . SVG Version: 6.00 Build 0)  -->
<svg version="1.1" id="レイヤー_1" xmlns="http://www.w3.org/2000/svg" xmlns:xlink="http://www.w3.org/1999/xlink" x="0px"
	 y="0px" viewBox="0 0 103 20" style="enable-background:new 0 0 103 20;" xml:space="preserve">
<style type="text/css">
	.st0{fill:#009044;}
	.st1{fill:#F1B600;}
</style>
<g>
	<path class="st0" d="M58.8,6.1c0.4,0,2.3,0,2.3,0v-6c0,0-0.2,0-2.8,0c-2.6,0-4.4,0.1-6.6,1.8c-2.2,1.6-2.8,3.1-2.8,4.9
		s0.8,3,1.1,3.4c0.4,0.5,1.3,1.7,1.6,2.2c0.3,0.5,0.3,1.1,0,1.6c-0.4,0.4-0.9,0.4-1.3,0.4h-5.8V7c0-3.6-2-6.9-7.5-6.9
		c-3.2,0-4.9,1.4-5.9,3.2c-1-1.8-2.7-3.2-5.9-3.2c-5.4,0-7.5,3.4-7.5,6.9v7.2H6.9v-1.9h6.5V8H6.9V6h6.8V0H0v14.3
		c0,3.2,3,5.6,7.1,5.6h10.7c3.8,0,6.9,0,6.9,0v-13c0-0.6,0.5-1.4,1.5-1.4c1,0,1.5,0.8,1.5,1.4c0,0.2,0,13,0,13h6.9c0,0,0-12.8,0-13
		c0-0.6,0.5-1.4,1.5-1.4c1,0,1.5,0.8,1.5,1.4v13h6.9c3.5,0,7.1,0,7.1,0c3.4,0,5-0.7,6.2-2c1.2-1.3,2-2.6,2-4.4
		c0-1.9-0.5-2.7-0.9-3.2c-0.4-0.6-0.6-0.9-1.3-1.8c-0.6-0.8-0.5-1.6-0.1-2C57.8,6.1,58.4,6.1,58.8,6.1z"/>
	<g>
		<path class="st1" d="M75.7,10c4.2,0,5.5,2.9,5.5,4.9c0,1,0,5,0,5h-4.6c0,0,0-4.7,0-5.1c0-0.4-0.2-0.9-0.9-0.9
			c-0.7,0-0.9,0.5-0.9,0.9c0,0.3,0,5.1,0,5.1h-4.6c0,0,0-3,0-5C70.2,12.9,71.5,10,75.7,10z"/>
		<path class="st1" d="M68.3,19.9h-4.6V10h4.6V19.9z M66,5.5c-1.3,0-2.3,0.8-2.3,1.9c0,1,1,1.9,2.3,1.9c1.3,0,2.3-0.8,2.3-1.9
			C68.4,6.3,67.3,5.5,66,5.5z"/>
		<path class="st1" d="M90.7,15c-0.1,0.7-0.8,1.3-1.7,1.3c-1,0-1.8-0.6-1.8-1.4c0-0.8,0.8-1.4,1.8-1.4c0.6,0,1,0.2,1.4,0.5h4.8
			c-0.6-2.3-3.1-4-6.2-4c-3.5,0-6.3,2.2-6.3,5c0,2.8,2.8,5,6.3,5c3.5,0,6.3-2.2,6.3-5H90.7z"/>
		<path class="st1" d="M102.1,17.7c0,1.3-1.3,2.3-2.9,2.3c-1.6,0-2.9-1-2.9-2.3c0-1.3,1.3-2.3,2.9-2.3
			C100.8,15.3,102.1,16.4,102.1,17.7z"/>
	</g>
</g>
</svg>
