<?xml version="1.0" encoding="utf-8"?>
<!-- Generator: Adobe Illustrator 26.3.1, SVG Export Plug-In . SVG Version: 6.00 Build 0)  -->
<svg version="1.1" id="レイヤー_1" xmlns="http://www.w3.org/2000/svg" xmlns:xlink="http://www.w3.org/1999/xlink" x="0px"
	 y="0px" viewBox="0 0 300 30" style="enable-background:new 0 0 300 30;" xml:space="preserve">
<style type="text/css">
	.st0{fill:#FF6666;}
</style>
<g>
	<polygon class="st0" points="18.3,1 12.4,18.9 6.6,1 0,1 0,28.5 4.9,28.5 4.9,11.8 10.4,28.5 14.5,28.5 19.8,12 19.8,28.5 
		34.6,28.5 34.6,1 	"/>
	<polygon class="st0" points="67.1,6 74.9,6 74.9,28.5 89.7,28.5 89.7,6 97.4,6 97.4,1 67.1,1 	"/>
	<path class="st0" d="M196.2,23.6c-2.2,0-3.8-0.5-4.7-1.5c-0.8-0.9-1.2-2.4-1.2-4.4V1h-14.9v17.1c0,3.4,0.8,6,2.4,7.7
		c1.8,1.9,4.6,2.8,8.4,2.8H202v-5H196.2z"/>
	<polygon class="st0" points="262.8,19.7 254.8,1 239.5,1 239.5,28.5 254.5,28.5 254.5,12.9 261.2,28.5 267.8,28.5 267.8,1 262.8,1 
			"/>
	<path class="st0" d="M300,14.8c0-9.1-4.4-13.7-12.9-13.7v0h-17.9v27.5h17.9v0C295.6,28.5,300,23.8,300,14.8z M292.4,22.2
		c-1.2,0.9-3,1.4-5.5,1.4h-2.8V6h2.8c2.5,0,4.4,0.4,5.5,1.3c1.7,1.3,2.6,3.8,2.6,7.5C295,18.4,294.1,20.9,292.4,22.2z"/>
	<path class="st0" d="M98.7,1v15.6c0,4.3,0.8,7.3,2.5,9.1c1.7,1.8,4.6,2.8,8.6,2.8h15.6v-5h-5.7c-2.4,0-4.1-0.5-4.9-1.4
		c-0.8-0.9-1.3-2.8-1.3-5.3h10.9v-4.9h-10.9V6h11.9V1H98.7z"/>
	<path class="st0" d="M139.6,1c-8.7,0-13.1,4.6-13.1,13.8c0,9.1,4.4,13.8,13.1,13.8H155v-5h-5.5c-2.5,0-4.3-0.5-5.5-1.4
		c-1.7-1.3-2.6-3.8-2.6-7.4c0-3.6,0.9-6.1,2.6-7.5c1.2-0.9,3.1-1.3,5.5-1.3h5.5V1H139.6z"/>
	<path class="st0" d="M61.5,5.3c-0.7-1.5-1.3-2.6-1.9-3.1C58.7,1.4,57.5,1,55.9,1l-8.6,0L35.9,28.5h5.4l2.6-6.2h8.8l2.7,6.2l16.2,0
		L61.5,5.3z M48.2,11.9l2.3,5.4h-4.6L48.2,11.9z"/>
	<path class="st0" d="M226.4,2.2c-0.9-0.8-2.1-1.2-3.6-1.2l-8.6,0l-11.5,27.5h5.4l2.6-6.2h8.8l2.7,6.2l16.3,0L228.4,5.3
		C227.7,3.7,227.1,2.7,226.4,2.2z M215,11.9l2.3,5.4h-4.6L215,11.9z"/>
</g>
</svg>
