<?xml version="1.0" encoding="utf-8"?>
<!-- Generator: Adobe Illustrator 26.3.1, SVG Export Plug-In . SVG Version: 6.00 Build 0)  -->
<svg version="1.1" id="レイヤー_1" xmlns="http://www.w3.org/2000/svg" xmlns:xlink="http://www.w3.org/1999/xlink" x="0px"
	 y="0px" viewBox="0 0 92 20" style="enable-background:new 0 0 92 20;" xml:space="preserve">
<style type="text/css">
	.st0{fill:#DD0012;}
	.st1{fill:#FFFFFF;}
</style>
<g>
	<rect y="0" class="st0" width="20" height="20"/>
	<path class="st1" d="M18.5,6c-1.5-3.2-4.7-5.4-8.5-5.4c-5.2,0-9.4,4.2-9.4,9.4s4.2,9.4,9.4,9.4c4.7,0,8.6-3.4,9.3-7.9L15.1,11
		c-0.5,2.3-2.5,4-4.9,4c-2.7,0-5-2.2-5-5c0-2.7,2.2-5,5-5c0.8,0,1.6,0.2,2.3,0.6L7,9.7l2.3,3.1L18.5,6z"/>
	<g>
		<polygon points="43,0 41,7.3 39,0 36.8,0 39.9,9.6 42,9.6 45.2,0 		"/>
		<polygon points="32.5,7.9 32.5,0 30.4,0 30.4,9.6 37.2,9.6 37.2,7.9 		"/>
		<rect x="45.6" y="4.3" class="st0" width="3.6" height="1.7"/>
		<polygon points="28.7,1.7 28.7,0 21.6,0 21.6,9.6 28.7,9.6 28.7,7.9 23.6,7.9 23.6,5.3 28.2,5.3 28.2,3.7 23.6,3.7 23.6,1.7 		"/>
		<rect x="69.5" y="10.4" width="2" height="9.6"/>
		<polygon points="47,20 49.6,20 45.6,14.5 49.5,10.4 46.9,10.4 43.2,14.3 43.2,10.4 41.2,10.4 41.2,20 43.2,20 43.2,16.9 44.1,16 
					"/>
		<polygon points="56.6,20 59.1,20 55.1,14.5 59,10.4 56.4,10.4 52.8,14.3 52.8,10.4 50.7,10.4 50.7,20 52.8,20 52.8,16.9 53.7,16 
					"/>
		<polygon points="27.2,10.4 27.2,14.1 23.6,14.1 23.6,10.4 21.6,10.4 21.6,20 23.6,20 23.6,15.8 27.2,15.8 27.2,20 29.3,20 
			29.3,10.4 		"/>
		<polygon points="57.7,1.7 57.7,0 50.7,0 50.7,9.6 57.7,9.6 57.7,7.9 52.7,7.9 52.7,5.3 57.3,5.3 57.3,3.7 52.7,3.7 52.7,1.7 		"/>
		<path d="M67,8.6v-2c0-0.9-0.4-1.3-0.9-1.5c0.7-0.4,1.2-1.1,1.2-2.2C67.3-0.2,64,0,64,0h-4.5v9.6h2V5.8h1.2c0.3,0,0.7,0,1.1-0.1
			C64.8,6,65,6.6,65,7.1c0,0.7,0,2,0.3,2.5h2.1c0,0,0-0.2,0-0.4C67.1,9.2,67,8.8,67,8.6z M61.5,4.2V1.7h2.4c0,0,1.5,0,1.5,1.3
			c0,1.3-1.5,1.3-1.5,1.3H61.5z"/>
		<path d="M39.9,15.2c0,2.6-1.4,4.8-4.6,4.8c-3.2,0-4.6-2.1-4.6-4.8c0-2.6,1.4-4.8,4.6-4.8C38.5,10.4,39.9,12.6,39.9,15.2z
			 M35.3,12.1c-1.7,0-2.5,1.4-2.5,3.1c0,1.7,0.8,3.1,2.5,3.1c1.8,0,2.5-1.4,2.5-3.1C37.8,13.5,37.1,12.1,35.3,12.1z"/>
		<path d="M91.7,15.2c0,2.6-1.4,4.8-4.6,4.8c-3.2,0-4.6-2.1-4.6-4.8c0-2.6,1.4-4.8,4.6-4.8C90.2,10.4,91.7,12.6,91.7,15.2z M87,12.1
			c-1.7,0-2.5,1.4-2.5,3.1c0,1.7,0.8,3.1,2.5,3.1c1.8,0,2.5-1.4,2.5-3.1C89.6,13.5,88.8,12.1,87,12.1z"/>
		<path d="M66.3,20h2L65,10.4h-2.3L59.5,20h2l0.6-1.8h3.5L66.3,20z M62.7,16.5l1.2-3.5l1.2,3.5H62.7z"/>
		<path d="M78.3,10.4h-4.8V20h4.8c0.7,0,3.2-0.9,3.2-4.8C81.6,11.4,79,10.4,78.3,10.4z M77.4,18.3h-1.8v-6.2h1.8
			c0.7,0,2.1,0.4,2.1,3.1S78.2,18.3,77.4,18.3z"/>
	</g>
</g>
</svg>
